# xmcd
#
# Track frame offsets: 
#        150
#        19613
#        38698
#        61337
#        82297
#        98560
#        121580
#        143951
#        167468
#        187848
#        204097
#        225974
#        246837
#        273189
#        290421
#        300654
#        316667
#        336067
#
# Disc length: 4758 seconds
#
# Revision: 1
# Processed by: cddbd v1.5.1PL2 Copyright (c) Steve Scherf et al.
# Submitted via: ExactAudioCopy v0.95b3
#
DISCID=dc129412
DTITLE=Ryszard Rynkowski - ten typ tak ma
DYEAR=2004
DGENRE=Blues
TTITLE0=Trzy siostry
TTITLE1=Ten typ tak ma
TTITLE2=Przejdzie
TTITLE3=Slawa
TTITLE4=Nie mowmy, ze to milosc
TTITLE5=Smutny lunapark
TTITLE6=Glupota
TTITLE7=Zakladnik
TTITLE8=W drodze
TTITLE9=Bardzo cicha noc
TTITLE10=Wypijmy za bledy
TTITLE11=Nie budzcie marzen ze snu
TTITLE12=Szczesliwej drogi juz czas
TTITLE13=Jedzie pociag z daleka, czyli zwierzenia Ryska
TTITLE14=Zycie jest nowela
TTITLE15=Dziewczyny lubia braz
TTITLE16=Dary losu
TTITLE17=Za m³odzi na sen, za starzy na grzech
EXTD=YEAR: 2004
EXTT0=
EXTT1=
EXTT2=
EXTT3=
EXTT4=
EXTT5=
EXTT6=
EXTT7=
EXTT8=
EXTT9=
EXTT10=
EXTT11=
EXTT12=
EXTT13=
EXTT14=
EXTT15=
EXTT16=
EXTT17=
PLAYORDER=
